<svg width="400" height="600" viewBox="0 0 400 600" xmlns="http://www.w3.org/2000/svg">
  <defs>
    <marker id="arrowhead" markerWidth="10" markerHeight="7" refX="0" refY="3.5" orient="auto">
      <polygon points="0 0, 10 3.5, 0 7" fill="#334155" />
    </marker>
  </defs>
  <rect width="400" height="600" fill="#ffffff" />
  <text x="200" y="30" text-anchor="middle" font-family="Arial, sans-serif" font-size="18" font-weight="bold" fill="#1e293b">Activity: Manage Orders</text>
  
  <circle cx="200" cy="70" r="10" fill="#1e293b" />
  <line x1="200" y1="80" x2="200" y2="110" stroke="#334155" stroke-width="2" marker-end="url(#arrowhead)" />
  
  <rect x="125" y="110" width="150" height="40" rx="10" fill="#f1f5f9" stroke="#334155" stroke-width="2" />
  <text x="200" y="135" text-anchor="middle" font-family="Arial, sans-serif" font-size="12" fill="#1e293b">Access Orders Module</text>
  <line x1="200" y1="150" x2="200" y2="180" stroke="#334155" stroke-width="2" marker-end="url(#arrowhead)" />
  
  <rect x="125" y="180" width="150" height="40" rx="10" fill="#f1f5f9" stroke="#334155" stroke-width="2" />
  <text x="200" y="205" text-anchor="middle" font-family="Arial, sans-serif" font-size="12" fill="#1e293b">Select Order</text>
  <line x1="200" y1="220" x2="200" y2="250" stroke="#334155" stroke-width="2" marker-end="url(#arrowhead)" />
  
  <polygon points="200,250 250,280 200,310 150,280" fill="#f8fafc" stroke="#334155" stroke-width="2" />
  <text x="200" y="285" text-anchor="middle" font-family="Arial, sans-serif" font-size="10" fill="#1e293b">Task?</text>
  
  <line x1="150" y1="280" x2="80" y2="280" stroke="#334155" stroke-width="2" />
  <line x1="80" y1="280" x2="80" y2="330" stroke="#334155" stroke-width="2" marker-end="url(#arrowhead)" />
  <rect x="20" y="330" width="120" height="40" rx="10" fill="#f1f5f9" stroke="#334155" stroke-width="2" />
  <text x="80" y="355" text-anchor="middle" font-family="Arial, sans-serif" font-size="12" fill="#1e293b">Update Status</text>
  
  <line x1="250" y1="280" x2="320" y2="280" stroke="#334155" stroke-width="2" />
  <line x1="320" y1="280" x2="320" y2="330" stroke="#334155" stroke-width="2" marker-end="url(#arrowhead)" />
  <rect x="260" y="330" width="120" height="40" rx="10" fill="#f1f5f9" stroke="#334155" stroke-width="2" />
  <text x="320" y="355" text-anchor="middle" font-family="Arial, sans-serif" font-size="12" fill="#1e293b">Edit Details</text>
  
  <line x1="80" y1="370" x2="80" y2="440" stroke="#334155" stroke-width="2" />
  <line x1="320" y1="370" x2="320" y2="440" stroke="#334155" stroke-width="2" />
  <line x1="80" y1="440" x2="320" y2="440" stroke="#334155" stroke-width="4" />
  
  <line x1="200" y1="440" x2="200" y2="480" stroke="#334155" stroke-width="2" marker-end="url(#arrowhead)" />
  <rect x="125" y="480" width="150" height="40" rx="10" fill="#f1f5f9" stroke="#334155" stroke-width="2" />
  <text x="200" y="505" text-anchor="middle" font-family="Arial, sans-serif" font-size="12" fill="#1e293b">Save Order State</text>
  
  <circle cx="200" cy="560" r="15" fill="none" stroke="#1e293b" stroke-width="2" />
  <circle cx="200" cy="560" r="10" fill="#1e293b" />
</svg>
